<svg width="1266" height="229" viewBox="0 0 1266 229" fill="none" xmlns="http://www.w3.org/2000/svg">
<path d="M166.311 0V29.8845H136.427V0H166.311Z" fill="#DF5BD3"/>
<path d="M120.225 0V29.77H97.9548V166.368H68.2992V29.77H0V0H120.225Z" fill="#7E5BF6"/>
<path d="M363.459 136.599L378.573 166.369H345.31L330.082 136.599L314.224 105.455L313.479 104.138C310.851 99.7799 307.138 96.1765 302.704 93.6784C298.27 91.1804 293.264 89.8727 288.175 89.8827H258.577V125.263H228.921V0.000245449H333.86C339.756 -0.0193524 345.597 1.13483 351.042 3.39551C356.488 5.65619 361.428 8.97814 365.577 13.1677C370.705 18.3036 374.514 24.6034 376.68 31.53C378.847 38.4567 379.305 45.8045 378.018 52.9467C376.73 60.089 373.733 66.8138 369.284 72.5476C364.835 78.2813 359.065 82.8539 352.467 85.8752C348.376 87.7663 344.007 88.9842 339.528 89.482L363.459 136.599ZM333.86 60.2845C336.019 60.3211 338.157 59.8505 340.101 58.9105C342.801 57.7107 345.094 55.7512 346.7 53.2709C348.306 50.7905 349.156 47.8965 349.146 44.9415C349.088 40.8532 347.47 36.9415 344.623 34.0067C341.768 31.2009 337.92 29.6369 333.918 29.6557H258.577V60.2845H333.86Z" fill="#DF5BD3"/>
<path d="M258.462 137.056V166.597H228.921V137.056H258.462Z" fill="#62BA47"/>
<path d="M434.846 166.311V0H464.502V166.311H434.846Z" fill="#009DDA"/>
<path d="M625.503 44.9415C625.506 53.5652 623.031 62.008 618.372 69.265C613.713 76.522 607.067 82.2875 599.225 85.8752C593.847 88.0444 588.173 89.3952 582.394 89.8827H505.335V124.862H475.68V0.000245449H580.619C586.515 -0.0193524 592.356 1.13483 597.801 3.39551C603.246 5.65619 608.187 8.97814 612.336 13.1677C620.759 21.5976 625.494 33.0245 625.503 44.9415ZM595.905 44.9415C595.861 40.8391 594.218 36.9157 591.325 34.0067C589.925 32.6139 588.264 31.5123 586.436 30.7655C584.608 30.0187 582.651 29.6415 580.676 29.6557H505.335V60.2845H580.619C582.777 60.3148 584.913 59.8445 586.859 58.9105C589.551 57.6989 591.836 55.7366 593.441 53.2589C595.045 50.7812 595.901 47.8933 595.905 44.9415Z" fill="#7E5BF6"/>
<path d="M505.221 137.171V166.712H475.68V137.171H505.221Z" fill="#009DDA"/>
<path d="M818.938 137.056V166.597H789.397V137.056H818.938Z" fill="#DF5BD3"/>
<path d="M775.027 136.656V166.025H734.437C726.352 166.053 718.373 164.19 711.136 160.586C702.321 156.195 694.889 149.457 689.657 141.113C684.425 132.77 681.595 123.145 681.481 113.298V0H711.136V116.275C711.827 121.428 714.189 126.212 717.861 129.893C721.532 133.575 726.309 135.95 731.46 136.656H775.027Z" fill="#7E5BF6"/>
<path d="M884.28 83.0698C877.569 76.1672 873.043 67.4389 871.267 57.9769C869.491 48.5149 870.545 38.7394 874.297 29.8733C878.049 21.0073 884.332 13.4444 892.36 8.13089C900.388 2.81736 909.804 -0.0108671 919.431 3.13792e-05H1036.45V29.6555H919.431C914.299 29.5341 909.329 31.4563 905.614 34.9993C901.899 38.5423 899.744 43.416 899.623 48.548C899.501 53.6801 901.424 58.6502 904.967 62.3651C908.51 66.0799 913.383 68.2351 918.515 68.3565C918.818 68.3042 919.128 68.3042 919.431 68.3565H948.801V98.1265H919.431C919.128 98.1789 918.818 98.1789 918.515 98.1265C913.545 98.4877 908.905 100.747 905.555 104.435C902.205 108.124 900.402 112.96 900.52 117.942C900.637 122.923 902.667 127.669 906.187 131.195C909.708 134.722 914.45 136.759 919.431 136.885H1036.45V166.025H919.431C909.839 165.988 900.468 163.136 892.481 157.824C884.494 152.511 878.242 144.972 874.499 136.139C870.756 127.307 869.688 117.571 871.427 108.137C873.165 98.7035 877.634 89.9876 884.28 83.0698Z" fill="#009DDA"/>
<path d="M1265.45 0L1201.27 83.4705L1265.45 166.483H1227.95L1182.61 107.687L1137.27 166.483H1099.82L1163.83 83.4705L1099.42 0H1136.86L1182.66 59.2538L1228.35 0H1265.45ZM1099.42 166.483H1099.82L1099.42 166.941V166.483Z" fill="#7E5BF6"/>
</svg>
